<svg width="25" height="19" viewBox="0 0 55 36" fill="none" xmlns="http://www.w3.org/2000/svg">
<path d="M0.544 18.048C0.544 12.512 1.536 8.176 3.52 5.04C5.536 1.904 8.864 0.335999 13.504 0.335999C18.144 0.335999 21.456 1.904 23.44 5.04C25.456 8.176 26.464 12.512 26.464 18.048C26.464 23.616 25.456 27.984 23.44 31.152C21.456 34.32 18.144 35.904 13.504 35.904C8.864 35.904 5.536 34.32 3.52 31.152C1.536 27.984 0.544 23.616 0.544 18.048ZM19.84 18.048C19.84 15.68 19.68 13.696 19.36 12.096C19.072 10.464 18.464 9.136 17.536 8.112C16.64 7.088 15.296 6.576 13.504 6.576C11.712 6.576 10.352 7.088 9.424 8.112C8.528 9.136 7.92 10.464 7.6 12.096C7.312 13.696 7.168 15.68 7.168 18.048C7.168 20.48 7.312 22.528 7.6 24.192C7.888 25.824 8.496 27.152 9.424 28.176C10.352 29.168 11.712 29.664 13.504 29.664C15.296 29.664 16.656 29.168 17.584 28.176C18.512 27.152 19.12 25.824 19.408 24.192C19.696 22.528 19.84 20.48 19.84 18.048ZM33.6873 28.416C36.7593 25.856 39.2073 23.728 41.0312 22.032C42.8553 20.304 44.3753 18.512 45.5913 16.656C46.8073 14.8 47.4153 12.976 47.4153 11.184C47.4153 9.552 47.0313 8.272 46.2633 7.344C45.4953 6.416 44.3113 5.952 42.7113 5.952C41.1113 5.952 39.8793 6.496 39.0153 7.584C38.1513 8.64 37.7033 10.096 37.6713 11.952H31.1433C31.2713 8.112 32.4073 5.2 34.5513 3.216C36.7273 1.232 39.4793 0.239997 42.8073 0.239997C46.4553 0.239997 49.2553 1.216 51.2073 3.168C53.1593 5.088 54.1353 7.632 54.1353 10.8C54.1353 13.296 53.4633 15.68 52.1193 17.952C50.7753 20.224 49.2393 22.208 47.5113 23.904C45.7833 25.568 43.5273 27.584 40.7433 29.952H54.9033V35.52H31.1913V30.528L33.6873 28.416Z" fill="black"/>
</svg>
