<svg width="55" height="37" viewBox="0 0 55 37" fill="none" xmlns="http://www.w3.org/2000/svg">
<path d="M0.544 18.048C0.544 12.512 1.536 8.176 3.52 5.04C5.536 1.904 8.864 0.335999 13.504 0.335999C18.144 0.335999 21.456 1.904 23.44 5.04C25.456 8.176 26.464 12.512 26.464 18.048C26.464 23.616 25.456 27.984 23.44 31.152C21.456 34.32 18.144 35.904 13.504 35.904C8.864 35.904 5.536 34.32 3.52 31.152C1.536 27.984 0.544 23.616 0.544 18.048ZM19.84 18.048C19.84 15.68 19.68 13.696 19.36 12.096C19.072 10.464 18.464 9.136 17.536 8.112C16.64 7.088 15.296 6.576 13.504 6.576C11.712 6.576 10.352 7.088 9.424 8.112C8.528 9.136 7.92 10.464 7.6 12.096C7.312 13.696 7.168 15.68 7.168 18.048C7.168 20.48 7.312 22.528 7.6 24.192C7.888 25.824 8.496 27.152 9.424 28.176C10.352 29.168 11.712 29.664 13.504 29.664C15.296 29.664 16.656 29.168 17.584 28.176C18.512 27.152 19.12 25.824 19.408 24.192C19.696 22.528 19.84 20.48 19.84 18.048ZM31.6713 10.224C31.8313 7.024 32.9513 4.56 35.0312 2.832C37.1433 1.072 39.9113 0.191998 43.3353 0.191998C45.6713 0.191998 47.6713 0.607998 49.3353 1.44C50.9993 2.24 52.2473 3.344 53.0793 4.752C53.9433 6.128 54.3752 7.696 54.3752 9.456C54.3752 11.472 53.8473 13.184 52.7913 14.592C51.7673 15.968 50.5353 16.896 49.0953 17.376V17.568C50.9513 18.144 52.3913 19.168 53.4153 20.64C54.4713 22.112 54.9993 24 54.9993 26.304C54.9993 28.224 54.5513 29.936 53.6553 31.44C52.7913 32.944 51.4953 34.128 49.7673 34.992C48.0713 35.824 46.0233 36.24 43.6233 36.24C40.0073 36.24 37.0633 35.328 34.7913 33.504C32.5193 31.68 31.3193 28.992 31.1913 25.44H37.7193C37.7833 27.008 38.3113 28.272 39.3033 29.232C40.3273 30.16 41.7193 30.624 43.4793 30.624C45.1113 30.624 46.3593 30.176 47.2233 29.28C48.1193 28.352 48.5673 27.168 48.5673 25.728C48.5673 23.808 47.9593 22.432 46.7433 21.6C45.5273 20.768 43.6393 20.352 41.0793 20.352H39.6873V14.832H41.0793C45.6233 14.832 47.8953 13.312 47.8953 10.272C47.8953 8.896 47.4793 7.824 46.6473 7.056C45.8473 6.288 44.6793 5.904 43.1432 5.904C41.6393 5.904 40.4713 6.32 39.6393 7.152C38.8393 7.952 38.3753 8.976 38.2473 10.224H31.6713Z" fill="black"/>
</svg>
